M48
; DRILL file {KiCad (5.1.5)-3} date 7/3/2020 5:29:09 PM
; FORMAT={-:-/ absolute / inch / decimal}
; #@! TF.CreationDate,2020-07-03T17:29:09+02:00
; #@! TF.GenerationSoftware,Kicad,Pcbnew,(5.1.5)-3
; #@! TF.FileFunction,Plated,1,2,PTH
FMAT,2
INCH
T1C0.0315
T2C0.0354
T3C0.0394
T4C0.0433
T5C0.0512
%
G90
G05
T1
X4.26Y-5.26
X4.28Y-4.92
X2.8981Y-4.565
X3.095Y-4.565
X4.14Y-1.595
X4.3369Y-1.595
X3.92Y-3.2
X4.12Y-3.2
X3.8297Y-4.5667
X4.0266Y-4.5667
X2.405Y-4.085
X2.6019Y-4.085
X2.8981Y-4.215
X3.095Y-4.215
X2.405Y-4.435
X2.6019Y-4.435
X2.0581Y-4.085
X2.255Y-4.085
X4.81Y-3.28
X5.01Y-3.28
X3.3581Y-4.565
X3.555Y-4.565
X5.71Y-1.935
X5.9069Y-1.935
X6.355Y-4.395
X6.355Y-4.5919
X2.0581Y-3.385
X2.255Y-3.385
X2.0581Y-4.435
X2.255Y-4.435
X3.01Y-3.25
X3.21Y-3.25
X5.4Y-4.7
X5.8Y-4.7
X3.3581Y-4.215
X3.555Y-4.215
X6.705Y-4.395
X6.705Y-4.5919
X7.335Y-1.97
X7.5319Y-1.97
X2.0581Y-3.735
X2.255Y-3.735
X7.335Y-2.32
X7.5319Y-2.32
X4.14Y-1.945
X4.3369Y-1.945
X2.405Y-3.385
X2.6019Y-3.385
X7.055Y-4.395
X7.055Y-4.5919
X5.705Y-2.285
X5.9019Y-2.285
X4.14Y-2.295
X4.3369Y-2.295
X2.405Y-3.735
X2.6019Y-3.735
X5.7Y-1.585
X5.8969Y-1.585
X7.335Y-1.62
X7.5319Y-1.62
X3.8131Y-4.22
X4.01Y-4.22
T2
X5.22Y-3.72
X5.22Y-3.82
X3.98Y-3.61
X3.98Y-3.71
X4.94Y-3.72
X4.94Y-3.82
X3.07Y-3.66
X3.07Y-3.76
X3.35Y-3.66
X3.35Y-3.76
X4.26Y-3.61
X4.26Y-3.71
T3
X4.8Y-3.11
X4.95Y-3.11
X3.92Y-3.03
X4.07Y-3.03
X3.0Y-3.08
X3.15Y-3.08
T4
X5.46Y-4.96
X5.56Y-4.96
X5.66Y-4.96
T5
X2.8981Y-4.925
X3.095Y-4.925
X2.2081Y-4.935
X2.405Y-4.935
X2.0688Y-2.4137
X2.0688Y-2.8941
X2.305Y-2.335
X2.5412Y-2.4137
X2.5412Y-2.8941
X2.1331Y-1.77
X2.33Y-1.77
X3.3581Y-4.925
X3.555Y-4.925
X3.8181Y-4.925
X4.015Y-4.925
T0
M30
